<svg width="218" height="86" viewBox="0 0 218 86" fill="none" xmlns="http://www.w3.org/2000/svg">
<g clip-path="url(#clip0_474_28390)">
<path d="M109.002 86C80.1663 86 53.0318 81.6905 32.5927 73.8621C11.5764 65.8108 0 54.851 0 43C0 31.149 11.5764 20.1892 32.5927 12.1379C53.0318 4.30946 80.1663 0 109.002 0C137.837 0 164.971 4.30946 185.42 12.1379C206.436 20.1892 218.012 31.149 218.012 43C218.012 54.851 206.424 65.8108 185.42 73.859C164.971 81.6905 137.837 86 109.002 86ZM109.002 3.87607C80.5623 3.87607 53.8515 8.10618 33.79 15.779C14.591 23.1313 3.58253 33.0504 3.58253 42.9878C3.58253 52.9252 14.591 62.8717 33.79 70.1966C53.8515 77.8816 80.5623 82.0995 109.002 82.0995C137.441 82.0995 164.149 77.8694 184.213 70.1966C203.412 62.8443 214.421 52.9282 214.421 42.9878C214.421 33.0473 203.412 23.1313 184.213 15.779C164.149 8.10618 137.438 3.87607 109.002 3.87607Z" fill="#D98918"/>
<path d="M151.848 17.1152H66.6467V18.449H151.848V17.1152Z" fill="#D98918"/>
<path d="M151.848 65.041H66.6467V66.3748H151.848V65.041Z" fill="#D98918"/>
<path d="M43.6074 53.7668C43.6074 52.137 44.9029 50.9192 46.6374 50.9192C47.4814 50.8961 48.303 51.1916 48.9367 51.7463L47.9083 52.9671C47.5721 52.6633 47.1347 52.4937 46.6804 52.491C46.5133 52.4908 46.3479 52.5244 46.1943 52.5899C46.0407 52.6554 45.9022 52.7514 45.7873 52.872C45.6723 52.9926 45.5833 53.1352 45.5258 53.2912C45.4682 53.4471 45.4432 53.6131 45.4524 53.779V53.7942C45.4436 53.9677 45.4715 54.1411 45.5342 54.3031C45.597 54.4652 45.6932 54.6124 45.8168 54.7352C45.9403 54.858 46.0883 54.9537 46.2514 55.0161C46.4144 55.0785 46.5888 55.1062 46.7632 55.0975C46.9807 55.1152 47.1987 55.0719 47.3926 54.9723V54.426H46.4501V53.254H49.1178V55.7842C48.4315 56.3325 47.5729 56.6232 46.6926 56.6052C44.9735 56.6021 43.6074 55.4607 43.6074 53.7668Z" fill="#D98918"/>
<path d="M49.6703 51.0215H51.5122V56.4846H49.6703V51.0215Z" fill="#D98918"/>
<path d="M54.0664 50.9692H55.8868L58.2046 56.4629H56.2091L55.9175 55.7304H53.9958L53.7133 56.4629H51.7517L54.0664 50.9692ZM54.6005 49.8613C54.9444 49.8369 55.1807 49.7362 55.1807 49.431C55.1807 49.4096 55.15 49.2906 54.9597 49.2998C54.866 49.3143 54.7789 49.3564 54.7094 49.4206C54.6399 49.4847 54.5913 49.5681 54.5698 49.6599L53.8085 49.2753C54.1615 48.5673 54.5913 48.4727 54.9996 48.4727C55.6136 48.4727 56.0925 48.8389 56.0925 49.4249C56.0961 49.626 56.0314 49.8224 55.9089 49.9825C55.7863 50.1425 55.6131 50.2568 55.4171 50.3069L55.368 50.6121H54.6435L54.6005 49.8613ZM55.4632 54.4394L54.9505 53.13L54.4501 54.4546L55.4632 54.4394Z" fill="#D98918"/>
<path d="M58.447 51.0215H60.2889V56.4846H58.447V51.0215Z" fill="#D98918"/>
<path d="M62.9321 51.0215H65.388C66.8493 51.0215 67.8439 51.6685 67.8439 52.9656V52.9809C67.8439 54.2994 66.8309 55.0013 65.345 55.0013H64.774V56.4846H62.9321V51.0215ZM65.2622 53.6981C65.7349 53.6981 66.048 53.4967 66.048 53.0877V53.0724C66.048 52.6757 65.7656 52.462 65.2714 52.462H64.774V53.6829L65.2622 53.6981Z" fill="#D98918"/>
<path d="M68.2492 51.0215H70.0911V52.9504H71.7734V51.0215H73.6153V56.4846H71.7734V54.5252H70.085V56.4846H68.243L68.2492 51.0215Z" fill="#D98918"/>
<path d="M76.1479 50.9689H77.9744L80.2922 56.4626H78.2814L77.9928 55.7301H76.068L75.7856 56.4626H73.824L76.1479 50.9689ZM76.9092 49.1133L78.6437 49.5558L77.3605 50.624H76.1693L76.9092 49.1133ZM77.5446 54.4421L77.0535 53.1297L76.55 54.4543L77.5446 54.4421Z" fill="#D98918"/>
<path d="M80.5163 51.0215H82.9875C84.4488 51.0215 85.4434 51.6685 85.4434 52.9656V52.9809C85.4434 54.2994 84.4304 55.0013 82.9446 55.0013H82.349V56.4846H80.5071L80.5163 51.0215ZM82.8463 53.6981C83.3191 53.6981 83.6322 53.4967 83.6322 53.0877V53.0724C83.6322 52.6757 83.3498 52.462 82.8555 52.462H82.3521V53.6829L82.8463 53.6981Z" fill="#D98918"/>
<path d="M87.709 53.768C87.7055 53.3884 87.7791 53.0121 87.9253 52.6614C88.0715 52.3108 88.2873 51.993 88.5598 51.7272C88.8324 51.4614 89.156 51.2529 89.5115 51.1143C89.8669 50.9757 90.2468 50.9097 90.6284 50.9204C91.1359 50.8987 91.6392 51.0206 92.0799 51.2718C92.5205 51.523 92.8805 51.8932 93.1181 52.3396L91.6016 53.2217C91.5214 53.0244 91.3834 52.8557 91.2054 52.7376C91.0274 52.6195 90.8178 52.5574 90.6039 52.5594C89.9899 52.5594 89.5755 53.0965 89.5755 53.7527V53.768C89.5755 54.4791 89.9991 54.9888 90.6039 54.9888C90.8261 54.9891 91.0434 54.9237 91.2282 54.8008C91.413 54.678 91.5568 54.5033 91.6415 54.299L93.158 55.1505C92.8457 55.705 92.3586 56.1418 91.7717 56.3936C91.1848 56.6454 90.5309 56.6981 89.911 56.5435C89.291 56.389 88.7394 56.0359 88.3415 55.5386C87.9435 55.0414 87.7212 54.4277 87.709 53.7924V53.768Z" fill="#D98918"/>
<path d="M93.511 51.0215H95.3529V52.9504H97.0321V51.0215H98.874V56.4846H97.0321V54.5252H95.3499V56.4846H93.5079L93.511 51.0215Z" fill="#D98918"/>
<path d="M99.3683 53.7672C99.3742 53.3827 99.4571 53.0033 99.6122 52.6511C99.7673 52.2989 99.9914 51.9809 100.271 51.7158C100.552 51.4507 100.882 51.2437 101.244 51.107C101.605 50.9703 101.99 50.9066 102.377 50.9196C104.071 50.9196 105.367 52.1588 105.367 53.7519V53.7672C105.361 54.1516 105.279 54.5311 105.124 54.8835C104.969 55.2358 104.746 55.554 104.466 55.8194C104.186 56.0848 103.856 56.2921 103.494 56.4292C103.133 56.5663 102.748 56.6304 102.361 56.6178C100.664 56.6025 99.3683 55.3603 99.3683 53.7672ZM103.516 53.7672C103.523 53.6111 103.498 53.4553 103.444 53.3088C103.389 53.1624 103.305 53.0283 103.198 52.9145C103.09 52.8007 102.961 52.7095 102.817 52.6463C102.673 52.583 102.518 52.5491 102.361 52.5464C102.205 52.5485 102.05 52.5823 101.907 52.6456C101.764 52.7088 101.636 52.8003 101.529 52.9144C101.423 53.0285 101.341 53.163 101.288 53.3095C101.235 53.4561 101.213 53.6118 101.222 53.7672V53.7824C101.215 53.9385 101.24 54.0943 101.295 54.2408C101.349 54.3872 101.433 54.5213 101.54 54.6351C101.648 54.7489 101.777 54.8401 101.921 54.9033C102.065 54.9666 102.22 55.0005 102.377 55.0032C102.535 55.0012 102.691 54.967 102.835 54.9028C102.979 54.8386 103.108 54.7457 103.215 54.6299C103.322 54.5141 103.403 54.3779 103.455 54.2295C103.507 54.0811 103.527 53.9238 103.516 53.7672Z" fill="#D98918"/>
<path d="M107.752 53.7681C107.749 53.3883 107.822 53.0117 107.969 52.6608C108.115 52.3099 108.331 51.9921 108.604 51.7262C108.877 51.4603 109.201 51.2519 109.557 51.1135C109.912 50.9751 110.293 50.9094 110.675 50.9205C111.182 50.8983 111.685 51.02 112.125 51.2713C112.565 51.5225 112.925 51.8931 113.161 52.3397L111.648 53.2218C111.568 53.0245 111.43 52.8559 111.252 52.7377C111.074 52.6196 110.864 52.5575 110.65 52.5595C110.036 52.5595 109.622 53.0966 109.622 53.7528V53.7681C109.622 54.4792 110.045 54.9889 110.65 54.9889C110.872 54.9884 111.089 54.9227 111.274 54.7999C111.458 54.6772 111.602 54.503 111.688 54.2991L113.201 55.1507C112.888 55.7068 112.398 56.1444 111.809 56.3956C111.22 56.6469 110.564 56.6976 109.942 56.54C109.321 56.3824 108.77 56.0252 108.374 55.524C107.978 55.0227 107.759 54.4055 107.752 53.7681Z" fill="#D98918"/>
<path d="M113.419 53.7675C113.425 53.3832 113.507 53.0038 113.662 52.6516C113.817 52.2994 114.04 51.9814 114.32 51.7163C114.6 51.4511 114.93 51.2441 115.292 51.1074C115.653 50.9706 116.038 50.9069 116.424 50.9199C118.122 50.9199 119.418 52.1591 119.418 53.7522V53.7675C119.412 54.1522 119.329 54.5319 119.175 54.8845C119.02 55.2371 118.796 55.5554 118.515 55.8209C118.235 56.0863 117.905 56.2935 117.543 56.4304C117.181 56.5673 116.796 56.6311 116.409 56.6181C114.715 56.6028 113.419 55.3606 113.419 53.7675ZM115.774 49.2871H117.06L118.107 50.63H117.109L116.409 50.1936L115.712 50.63H114.73L115.774 49.2871ZM117.576 53.7675C117.583 53.6114 117.558 53.4556 117.504 53.3092C117.449 53.1627 117.365 53.0286 117.258 52.9148C117.15 52.801 117.021 52.7098 116.877 52.6466C116.733 52.5833 116.578 52.5494 116.421 52.5467C116.265 52.5493 116.111 52.5833 115.968 52.6467C115.825 52.7101 115.697 52.8016 115.59 52.9156C115.484 53.0297 115.402 53.1639 115.349 53.3103C115.296 53.4567 115.273 53.6122 115.282 53.7675V53.7827C115.275 53.9388 115.3 54.0946 115.355 54.2411C115.409 54.3875 115.493 54.5216 115.6 54.6354C115.708 54.7492 115.837 54.8404 115.981 54.9037C116.125 54.9669 116.28 55.0009 116.437 55.0036C116.595 55.0015 116.751 54.9673 116.895 54.9031C117.039 54.8389 117.168 54.746 117.275 54.6303C117.382 54.5145 117.463 54.3782 117.515 54.2298C117.567 54.0814 117.587 53.9241 117.576 53.7675ZM115.734 56.9446H117.115V57.9884H115.734V56.9446Z" fill="#D98918"/>
<path d="M121.327 52.5658H119.725V51.0215H124.796V52.5658H123.163V56.4846H121.321L121.327 52.5658Z" fill="#D98918"/>
<path d="M126.736 55.6664L127.718 54.5036C128.269 54.927 128.947 55.1519 129.643 55.1415C129.981 55.1415 130.113 55.056 130.113 54.9095V54.8912C130.113 54.7356 129.941 54.6501 129.352 54.5341C128.124 54.2838 127.037 53.9237 127.037 52.7761C127.037 51.7385 127.86 50.9449 129.367 50.9449C130.256 50.8972 131.134 51.1619 131.847 51.6927L130.954 52.9135C130.472 52.5727 129.897 52.3854 129.306 52.3763C129.029 52.3763 128.903 52.4709 128.903 52.6022V52.6174C128.903 52.767 129.045 52.8677 129.634 52.9684C131.04 53.2187 131.982 53.6399 131.982 54.7325V54.7478C131.982 55.8953 131.031 56.5973 129.554 56.5973C128.532 56.6389 127.53 56.3078 126.736 55.6664Z" fill="#D98918"/>
<path d="M132.28 53.7682C132.286 53.3837 132.369 53.0043 132.524 52.6521C132.679 52.2999 132.903 51.9819 133.183 51.7168C133.464 51.4517 133.794 51.2447 134.155 51.108C134.517 50.9713 134.902 50.9076 135.289 50.9207C136.983 50.9207 138.279 52.1598 138.279 53.7529V53.7682C138.273 54.1526 138.191 54.5321 138.036 54.8845C137.881 55.2369 137.658 55.5551 137.378 55.8205C137.098 56.0859 136.768 56.2931 136.406 56.4302C136.045 56.5673 135.66 56.6314 135.273 56.6188C133.576 56.6035 132.28 55.3614 132.28 53.7682ZM134.635 49.2878H135.924L136.968 50.6307H135.97L135.273 50.1943L134.573 50.6307H133.591L134.635 49.2878ZM136.428 53.7682C136.435 53.6122 136.41 53.4563 136.356 53.3099C136.301 53.1634 136.217 53.0293 136.11 52.9155C136.002 52.8017 135.873 52.7105 135.729 52.6473C135.585 52.5841 135.43 52.5501 135.273 52.5474C135.117 52.5496 134.962 52.5833 134.819 52.6466C134.676 52.7098 134.548 52.8013 134.441 52.9154C134.335 53.0296 134.253 53.164 134.2 53.3106C134.147 53.4571 134.125 53.6128 134.134 53.7682V53.7835C134.127 53.9395 134.152 54.0953 134.207 54.2418C134.261 54.3882 134.345 54.5223 134.452 54.6361C134.56 54.7499 134.689 54.8411 134.833 54.9044C134.977 54.9676 135.132 55.0016 135.289 55.0043C135.447 55.0018 135.602 54.9673 135.746 54.9029C135.89 54.8386 136.019 54.7457 136.126 54.63C136.232 54.5143 136.314 54.3782 136.366 54.23C136.418 54.0818 136.439 53.9247 136.428 53.7682ZM137.244 48.1738L138.979 48.6164L137.683 49.6724H136.489L137.244 48.1738Z" fill="#D98918"/>
<path d="M138.782 51.0215H140.501L142.457 53.4326V51.0215H144.283V56.4846H142.653L140.6 53.9636V56.4846H138.776L138.782 51.0215Z" fill="#D98918"/>
<path d="M144.784 53.7674C144.784 52.1376 146.079 50.9198 147.814 50.9198C148.657 50.8917 149.479 51.1817 150.116 51.7317L149.088 52.9525C148.752 52.6486 148.314 52.4791 147.86 52.4764C147.693 52.4761 147.527 52.5098 147.374 52.5753C147.22 52.6408 147.082 52.7368 146.967 52.8573C146.852 52.9779 146.763 53.1205 146.705 53.2765C146.648 53.4325 146.623 53.5985 146.632 53.7643V53.7796C146.623 53.953 146.651 54.1264 146.714 54.2885C146.776 54.4506 146.873 54.5978 146.996 54.7206C147.12 54.8434 147.268 54.9391 147.431 55.0014C147.594 55.0638 147.768 55.0916 147.943 55.0828C148.16 55.1006 148.378 55.0572 148.572 54.9577V54.4114H147.63V53.2394H150.291V55.7695C149.605 56.3179 148.746 56.6085 147.866 56.5905C146.15 56.6027 144.784 55.4613 144.784 53.7674Z" fill="#D98918"/>
<path d="M152.824 51.0215H154.666V53.0663L156.225 51.0215H158.374L156.458 53.3929L158.405 56.4846H156.213L155.138 54.7511L154.669 55.3218V56.4846H152.827L152.824 51.0215Z" fill="#D98918"/>
<path d="M158.558 51.0215H160.4V52.9504H162.089V51.0215H163.931V56.4846H162.089V54.5252H160.409V56.4846H158.568L158.558 51.0215Z" fill="#D98918"/>
<path d="M164.416 53.7674C164.421 53.3831 164.504 53.0038 164.658 52.6516C164.813 52.2994 165.037 51.9814 165.317 51.7162C165.597 51.4511 165.927 51.2441 166.288 51.1073C166.649 50.9706 167.035 50.9069 167.421 50.9199C169.119 50.9199 170.414 52.159 170.414 53.7522V53.7674C170.409 54.1521 170.326 54.5319 170.171 54.8845C170.016 55.237 169.792 55.5554 169.512 55.8208C169.232 56.0863 168.901 56.2935 168.54 56.4304C168.178 56.5673 167.792 56.631 167.406 56.618C165.711 56.6028 164.416 55.3606 164.416 53.7674ZM167.022 49.873C167.366 49.8486 167.602 49.7479 167.602 49.4427C167.602 49.4213 167.571 49.3023 167.384 49.3115C167.29 49.3255 167.202 49.3673 167.132 49.4315C167.062 49.4957 167.013 49.5794 166.991 49.6716L166.23 49.2871C166.583 48.579 167.013 48.4844 167.421 48.4844C168.035 48.4844 168.514 48.8506 168.514 49.4366C168.517 49.6377 168.453 49.8342 168.33 49.9942C168.208 50.1543 168.034 50.2686 167.838 50.3186L167.792 50.6238H167.053L167.022 49.873ZM168.557 53.7674C168.564 53.6114 168.539 53.4556 168.485 53.3091C168.43 53.1627 168.346 53.0286 168.239 52.9148C168.131 52.801 168.002 52.7097 167.858 52.6465C167.715 52.5833 167.56 52.5493 167.402 52.5466C167.246 52.5492 167.092 52.5833 166.949 52.6467C166.806 52.7101 166.678 52.8016 166.571 52.9156C166.465 53.0296 166.383 53.1639 166.33 53.3103C166.277 53.4567 166.254 53.6122 166.264 53.7674V53.7827C166.257 53.9387 166.281 54.0946 166.336 54.241C166.39 54.3875 166.474 54.5216 166.581 54.6354C166.689 54.7492 166.819 54.8404 166.962 54.9036C167.106 54.9668 167.261 55.0008 167.418 55.0035C167.576 55.0019 167.732 54.968 167.877 54.904C168.021 54.8399 168.151 54.7471 168.258 54.6313C168.365 54.5155 168.447 54.379 168.499 54.2305C168.551 54.0819 168.572 53.9243 168.56 53.7674H168.557Z" fill="#D98918"/>
<path d="M170.918 51.0215H175.596V52.52H172.713V53.0755H175.4V54.394H172.713V54.9861H175.633V56.4846H170.918V51.0215Z" fill="#D98918"/>
<path d="M51.9266 29.5801C47.0916 29.5801 43.3556 33.2425 43.3556 37.848V37.8938C43.3556 42.5146 47.0394 46.116 51.8806 46.116C56.7218 46.116 60.4516 42.4535 60.4516 37.848V37.8053C60.4516 33.1815 56.7586 29.5801 51.9266 29.5801ZM55.1715 37.8938C55.1715 39.7525 53.9159 41.428 51.9266 41.428C49.9374 41.428 48.6358 39.7281 48.6358 37.848V37.8053C48.6358 35.9466 49.8883 34.271 51.8806 34.271C53.8729 34.271 55.1715 35.968 55.1715 37.848V37.8938Z" fill="#D98918"/>
<path d="M101.137 29.5801C96.3016 29.5801 92.5656 33.2425 92.5656 37.848V37.8938C92.5656 42.5146 96.2494 46.116 101.091 46.116C105.932 46.116 109.662 42.4535 109.662 37.848V37.8053C109.662 33.1815 105.969 29.5801 101.137 29.5801ZM104.375 37.8938C104.375 39.7525 103.12 41.428 101.13 41.428C99.1412 41.428 97.8396 39.7281 97.8396 37.848V37.8053C97.8396 35.9466 99.0921 34.271 101.084 34.271C103.077 34.271 104.375 35.968 104.375 37.845V37.8938Z" fill="#D98918"/>
<path d="M158.153 37.8053C158.153 33.1815 154.469 29.5801 149.625 29.5801C144.781 29.5801 141.054 33.2669 141.054 37.845V37.8907C141.054 42.5115 144.738 46.1129 149.582 46.1129C154.426 46.1129 158.153 42.4505 158.153 37.845V37.8053ZM152.87 37.8938C152.87 39.7525 151.617 41.428 149.625 41.428C147.633 41.428 146.337 39.7281 146.337 37.848V37.8053C146.337 35.9466 147.59 34.271 149.582 34.271C151.574 34.271 152.879 35.968 152.879 37.845L152.87 37.8938Z" fill="#D98918"/>
<path d="M122.211 40.5486C124.053 39.5902 125.207 37.9513 125.207 35.5402V35.4944C125.207 33.8097 124.753 32.6163 123.817 31.6092C122.755 30.4647 121.054 29.7383 118.343 29.7383H110.914V46.1155H115.998V41.4367H117.084L119.952 46.1155H125.751L122.211 40.5486ZM120.145 35.4425C120.145 36.4466 119.408 37.0326 118.19 37.0326H115.998V33.828H118.214C119.408 33.828 120.145 34.3407 120.145 35.3937V35.4425Z" fill="#D98918"/>
<path d="M69.8761 34.3382C71.2668 34.3382 72.0465 35.1073 72.639 36.264L76.8324 33.7034C75.5492 31.2801 73.3113 29.5801 69.9437 29.5801C65.388 29.5801 61.8577 33.1143 61.8577 37.845V37.8907C61.8577 42.8076 65.5415 46.1129 69.7441 46.1129C71.4332 46.1627 73.0934 45.6693 74.4779 44.7059C74.5454 44.6571 74.6191 44.6113 74.6835 44.5594C75.3649 44.0807 75.9388 43.4665 76.3689 42.7557C76.5836 42.4311 76.6821 42.044 76.6482 41.6569C76.6363 41.5425 76.5867 41.4352 76.507 41.3517C76.4863 41.3301 76.4625 41.3116 76.4364 41.2968C76.399 41.2805 76.3599 41.2683 76.3198 41.2602C75.8953 41.2295 75.5002 41.0331 75.2208 40.7139C75.1624 40.6528 75.1041 40.5887 75.0427 40.5124C74.8988 40.3403 74.7742 40.153 74.6713 39.9539C74.648 39.9063 74.6275 39.8574 74.6099 39.8074C74.5679 39.6834 74.5451 39.5537 74.5423 39.4229C74.5423 39.3954 74.5423 39.3679 74.5423 39.3405C74.5423 39.313 74.5423 39.2764 74.5423 39.2306C74.553 39.122 74.553 39.0126 74.5423 38.904C74.5196 38.7872 74.4605 38.6804 74.3735 38.5988C74.3072 38.5272 74.2268 38.47 74.1371 38.431C74.009 38.3752 73.8646 38.3687 73.7319 38.4126C73.5485 38.4926 73.3927 38.6241 73.2837 38.7911C72.3382 40.3476 72.1171 40.4758 71.6167 40.8848C71.1095 41.2507 70.4891 41.4279 69.8639 41.3853C68.1908 41.3853 67.0181 39.9356 67.0181 37.8724V37.8297C67.0304 35.9008 68.1509 34.3382 69.8761 34.3382Z" fill="#D98918"/>
<path d="M32.9181 29.7276C32.9181 29.7276 29.1268 29.7459 27.6165 29.7276C27.3647 29.7276 26.7354 29.6513 24.8966 29.1172C24.696 29.0599 24.4832 29.0599 24.2826 29.1172C24.1523 29.1627 24.0432 29.2539 23.9756 29.3736C23.9319 29.4593 23.9048 29.5525 23.8958 29.6483C23.8802 29.7675 23.9039 29.8885 23.9633 29.9931C24.0495 30.1076 24.1461 30.2138 24.2519 30.3106C24.4115 30.5395 24.5834 30.7165 24.5834 31.5131C24.6054 31.7622 24.5692 32.013 24.4776 32.246C24.386 32.4789 24.2415 32.6877 24.0554 32.8559C23.9566 32.9529 23.8994 33.0842 23.8958 33.2222C23.9067 33.353 23.9506 33.479 24.0236 33.5884C24.0966 33.6978 24.1963 33.787 24.3133 33.8479C24.7545 34.1074 25.2426 34.2785 25.75 34.3514C26.2568 34.4412 26.7701 34.4902 27.2849 34.4979C27.463 34.4979 27.5919 34.4979 27.5919 34.4979C28.6786 34.4979 32.1506 34.4979 32.1506 34.4979H32.9979C33.7159 34.4786 34.4301 34.6085 35.0946 34.8794C36.1906 35.3708 36.823 36.3475 36.823 37.8948V37.9406C36.823 40.3059 35.3433 41.3345 32.9979 41.3345H32.1506V34.9863H27.0946V46.117H32.7431C38.8829 46.117 41.9773 42.6987 41.9773 37.8307V37.7819C41.9773 32.9139 38.9565 29.7276 32.9181 29.7276Z" fill="#D98918"/>
<path d="M92.8326 33.0895C92.8279 32.9592 92.773 32.8356 92.6791 32.7446C92.5023 32.5891 92.3644 32.3948 92.2765 32.177C92.1885 31.9592 92.153 31.7241 92.1725 31.4902C92.1725 30.7425 92.326 30.5746 92.4795 30.3579C92.5774 30.2651 92.6659 30.1628 92.7435 30.0527C92.8001 29.9537 92.8217 29.8388 92.8049 29.7261C92.7983 29.6371 92.7721 29.5507 92.7282 29.4728C92.6648 29.3613 92.5636 29.2759 92.4427 29.2317C92.31 29.1962 92.1702 29.1962 92.0375 29.2317C91.9888 29.2393 91.9407 29.2494 91.8932 29.2622C91.6046 29.3324 91.3498 29.3874 91.1196 29.4362C90.6487 29.539 90.172 29.6134 89.6921 29.659C89.6338 29.659 89.3084 29.659 89.3084 29.659H77.735V34.3133H82.2108V46.1155H87.2945V34.3164H89.3329C89.3329 34.3164 89.511 34.3164 89.775 34.3164C90.2236 34.3224 90.6718 34.2856 91.1134 34.2065C91.3852 34.1556 91.6514 34.0789 91.9085 33.9776C92.4396 33.7792 92.8356 33.4771 92.8326 33.0895Z" fill="#D98918"/>
<path d="M194.838 33.0892C194.81 33.0346 194.776 32.9834 194.737 32.9366C194.535 32.7521 194.386 32.5186 194.304 32.2591C194.234 32.0338 194.2 31.799 194.202 31.5632C194.202 30.7453 194.377 30.5652 194.537 30.3424C194.644 30.2413 194.741 30.1299 194.826 30.0097C194.884 29.9003 194.908 29.7757 194.893 29.6527C194.886 29.5556 194.859 29.4611 194.813 29.3749C194.747 29.2531 194.638 29.1597 194.506 29.1125C194.313 29.0611 194.109 29.0675 193.92 29.1308C193.085 29.344 192.234 29.4869 191.375 29.558H187.262V36.8829L181.674 29.558H176.763V46.1153H181.981V38.4852L187.814 46.1153H192.48V34.5512C192.668 34.5298 192.858 34.5054 193.051 34.4688C193.972 34.2948 194.921 33.9316 194.921 33.312C194.912 33.2321 194.884 33.1555 194.838 33.0892Z" fill="#D98918"/>
<path d="M133.579 29.6232H130.435C130.408 29.6232 129.585 29.73 127.399 29.1287C127.086 29.0304 126.755 28.9992 126.429 29.0372C126.276 29.0931 126.148 29.2013 126.067 29.3424C126.012 29.4422 125.98 29.5525 125.972 29.6659C125.953 29.8082 125.981 29.9526 126.052 30.0779C126.153 30.2178 126.269 30.3476 126.395 30.4655C126.589 30.7402 126.795 30.9508 126.795 31.9C126.795 32.9956 126.291 33.3588 126.159 33.4992C126.041 33.616 125.973 33.7734 125.969 33.9387C125.969 34.3141 126.276 34.6102 126.724 34.836C127.193 35.0505 127.688 35.2014 128.197 35.2847C128.296 35.303 128.397 35.3182 128.504 35.3304V35.4037V46.1163H140.735V41.5871H133.579V29.6232Z" fill="#D98918"/>
<path d="M163.869 29.6055H169.088L175.734 46.0467H170.018L169.186 43.8523H163.66L162.85 46.0467H157.223L163.869 29.6055ZM167.878 39.9824L166.436 36.0147L164.996 39.9824H167.878Z" fill="#D98918"/>
</g>
<defs>
<clipPath id="clip0_474_28390">
<rect width="218" height="86" fill="white"/>
</clipPath>
</defs>
</svg>
